<?xml version="1.0" standalone="no"?>
<!DOCTYPE svg PUBLIC "-//W3C//DTD SVG 20010904//EN"
 "http://www.w3.org/TR/2001/REC-SVG-20010904/DTD/svg10.dtd">
<svg version="1.0" xmlns="http://www.w3.org/2000/svg"
 width="400.000000pt" height="400.000000pt" viewBox="0 0 400.000000 400.000000"
 preserveAspectRatio="xMidYMid meet">
<metadata>
Created by potrace 1.14, written by Peter Selinger 2001-2017
</metadata>
<g transform="translate(0.000000,400.000000) scale(0.100000,-0.100000)"
fill="#000000" stroke="none">
<path d="M1230 3990 c0 -5 5 -10 10 -10 6 0 10 5 10 10 0 6 -4 10 -10 10 -5 0
-10 -4 -10 -10z"/>
<path d="M1280 3985 c0 -8 4 -15 9 -15 5 0 14 7 21 15 10 13 9 15 -9 15 -12 0
-21 -6 -21 -15z"/>
<path d="M1360 3996 c0 -2 14 -6 30 -8 17 -3 30 -1 30 4 0 4 -13 8 -30 8 -16
0 -30 -2 -30 -4z"/>
<path d="M1483 3994 c7 -8 118 -6 125 1 3 3 -25 5 -63 5 -38 0 -65 -3 -62 -6z"/>
<path d="M1860 3985 c19 -7 27 -14 18 -14 -22 -1 -24 -21 -3 -21 8 0 19 -9 25
-20 10 -19 9 -20 -20 -15 -27 5 -30 3 -30 -20 0 -14 -4 -25 -10 -25 -5 0 -10
12 -10 26 0 23 -2 25 -15 14 -14 -12 -14 -15 0 -30 25 -28 18 -40 -26 -40 -22
0 -47 -6 -54 -14 -12 -12 -10 -16 19 -30 19 -9 39 -16 45 -16 6 0 11 -5 11
-10 0 -6 6 -10 13 -9 28 3 37 -2 37 -23 0 -12 3 -18 7 -15 3 4 13 1 21 -6 12
-9 16 -9 19 1 14 39 43 -9 59 -98 10 -51 12 -57 13 -28 1 48 10 68 27 61 9 -3
15 7 20 36 4 23 12 41 18 41 14 0 96 -76 96 -90 0 -5 4 -10 9 -10 15 0 -10 62
-36 90 -26 29 -26 28 -10 57 12 21 14 22 35 7 12 -8 21 -18 20 -22 -2 -4 16
-26 39 -50 l43 -43 0 28 c0 21 3 24 12 15 17 -17 30 -15 26 6 -1 10 7 29 20
42 25 27 29 50 7 50 -8 0 -15 5 -15 11 0 11 20 10 84 -7 15 -4 26 -2 26 4 0 6
-8 13 -17 15 -16 4 -16 5 0 6 11 0 21 -7 24 -18 3 -11 17 -21 35 -25 43 -8
132 -70 159 -109 13 -17 26 -34 30 -37 3 -3 16 -26 28 -52 11 -26 29 -53 38
-60 10 -7 31 -31 48 -53 16 -22 38 -49 48 -60 53 -58 107 -197 107 -280 1 -39
19 -120 32 -140 3 -6 9 -28 13 -50 3 -22 13 -68 21 -103 9 -35 16 -94 17 -132
1 -40 5 -63 10 -57 5 7 6 -8 3 -34 -4 -35 0 -53 15 -79 28 -45 42 -83 29 -75
-7 4 -9 -2 -5 -17 7 -32 28 -227 27 -258 0 -14 2 -45 6 -70 5 -44 6 -44 13
-15 5 18 6 4 2 -35 -3 -36 -9 -67 -14 -68 -5 -2 -6 -9 -3 -14 4 -6 2 -8 -4 -4
-5 3 -12 0 -15 -6 -3 -7 -3 7 0 32 l5 45 -23 -42 c-18 -34 -25 -40 -36 -31
-11 9 -12 6 -3 -16 14 -38 13 -43 -6 -20 -8 10 -13 14 -10 7 3 -6 2 -22 -3
-35 -7 -20 -9 -17 -9 17 0 22 4 58 10 80 6 22 10 63 9 90 -1 38 2 47 10 35 9
-13 10 -12 5 3 -3 10 -6 41 -6 68 0 31 -4 48 -10 44 -5 -3 -10 3 -10 14 0 16
-40 105 -53 118 -6 5 3 -142 12 -202 5 -33 9 -69 9 -80 0 -11 3 -51 7 -90 11
-103 -8 -230 -46 -312 -17 -37 -33 -62 -36 -55 -3 8 -1 24 5 35 15 29 42 142
43 175 0 24 1 25 9 7 6 -13 7 7 3 55 -3 41 -9 80 -13 85 -5 6 -11 36 -15 69
-11 87 -26 47 -23 -61 1 -48 -2 -117 -7 -153 -4 -36 -8 -83 -7 -105 1 -22 -4
-55 -10 -74 -19 -60 -30 -12 -18 77 7 52 7 87 1 103 -5 13 -10 20 -11 14 0 -5
-5 -44 -11 -85 -5 -41 -10 -111 -10 -155 l-1 -80 -24 65 c-13 36 -24 74 -24
84 0 11 -5 48 -11 84 -8 46 -14 60 -21 51 -7 -10 -8 -9 -4 5 10 28 -4 112 -15
95 -6 -10 -9 -3 -9 19 0 17 -5 32 -11 32 -6 0 -8 8 -4 19 3 11 1 22 -5 26 -6
4 -9 20 -6 38 5 27 3 25 -8 -8 -8 -22 -21 -62 -28 -90 -13 -47 -14 -41 -11
103 1 89 -1 152 -7 152 -5 0 -9 -84 -9 -204 0 -241 -11 -336 -57 -473 -19 -55
-34 -105 -34 -110 1 -18 34 55 47 102 l13 50 -4 -43 c-5 -53 -37 -132 -53
-132 -8 0 -11 -10 -8 -30 3 -17 7 -44 10 -61 6 -40 32 -66 48 -50 9 10 9 12
-2 9 -7 -2 -15 2 -18 9 -3 7 3 10 15 6 11 -2 33 2 50 11 42 22 80 5 87 -38 3
-17 12 -76 20 -130 9 -55 20 -105 24 -110 5 -6 12 -33 16 -59 4 -26 10 -46 13
-43 2 3 14 -12 24 -34 20 -39 54 -60 77 -45 6 3 11 -2 11 -12 0 -21 33 -53 55
-53 9 0 18 -7 21 -15 4 -8 12 -15 19 -15 7 0 18 -6 25 -14 6 -8 19 -12 27 -9
11 4 14 2 9 -5 -4 -7 -2 -10 6 -7 7 3 24 -5 39 -17 30 -28 46 -37 124 -79 33
-17 76 -41 95 -52 23 -14 31 -16 23 -6 -13 16 -8 29 11 29 7 0 6 -4 -1 -8 -9
-6 0 -14 28 -26 26 -12 37 -21 29 -26 -16 -10 14 -21 38 -14 12 4 13 3 4 -3
-10 -7 1 -20 42 -52 50 -37 56 -40 56 -20 0 12 -5 19 -12 17 -15 -5 -43 20
-34 30 4 3 10 1 14 -5 4 -6 16 -12 26 -14 10 -2 24 -13 30 -24 6 -11 19 -26
29 -33 9 -7 17 -20 17 -28 0 -8 7 -17 15 -20 10 -4 14 -14 10 -28 -5 -17 -4
-18 4 -6 12 16 12 16 16 -18 1 -13 18 -60 37 -105 20 -45 48 -115 63 -154 l27
-73 114 0 114 0 0 2000 0 2000 -1087 -1 c-924 0 -1083 -3 -1053 -14z m1197
-1297 c-3 -8 -6 -5 -6 6 -1 11 2 17 5 13 3 -3 4 -12 1 -19z m-37 -94 c0 -8 -4
-12 -10 -9 -5 3 -10 10 -10 16 0 5 5 9 10 9 6 0 10 -7 10 -16z m27 -56 c-3 -8
-6 -5 -6 6 -1 11 2 17 5 13 3 -3 4 -12 1 -19z m42 -153 c-1 -13 -4 -8 -10 12
-5 18 -14 35 -19 38 -6 3 -10 12 -10 18 0 7 9 -1 20 -18 11 -16 19 -39 19 -50z
m8 -57 c-3 -7 -5 -2 -5 12 0 14 2 19 5 13 2 -7 2 -19 0 -25z m11 -103 c-3 -3
-9 2 -12 12 -6 14 -5 15 5 6 7 -7 10 -15 7 -18z m-11 -52 c-3 -10 -5 -4 -5 12
0 17 2 24 5 18 2 -7 2 -21 0 -30z m-300 -705 c-3 -7 -5 -2 -5 12 0 14 2 19 5
13 2 -7 2 -19 0 -25z m-70 -305 c-3 -10 -5 -4 -5 12 0 17 2 24 5 18 2 -7 2
-21 0 -30z m610 -539 c-3 -3 -12 -4 -19 -1 -8 3 -5 6 6 6 11 1 17 -2 13 -5z
m183 -78 c0 -3 -4 -8 -10 -11 -5 -3 -10 -1 -10 4 0 6 5 11 10 11 6 0 10 -2 10
-4z"/>
<path d="M1440 3981 c0 -10 25 -21 48 -21 12 1 10 5 -8 15 -29 17 -40 18 -40
6z"/>
<path d="M1490 3920 c-8 -5 -12 -11 -10 -14 3 -2 14 2 24 10 22 15 10 19 -14
4z"/>
<path d="M1516 3904 c-11 -7 -29 -11 -40 -8 -14 3 -36 -5 -59 -20 -21 -14 -55
-29 -76 -32 -44 -7 -69 -20 -58 -30 4 -4 13 -2 19 4 7 7 19 12 28 12 22 -1
-36 -50 -60 -50 -10 0 -22 -9 -25 -21 -4 -12 -12 -18 -21 -15 -7 3 -18 -3 -24
-12 -8 -12 -13 -14 -16 -4 -3 6 -10 12 -16 12 -6 0 -5 -7 3 -16 11 -14 6 -23
-41 -68 -54 -51 -110 -114 -110 -122 0 -3 -16 -27 -35 -55 -19 -28 -35 -44
-35 -35 0 9 -5 16 -11 16 -7 0 -9 -10 -5 -25 4 -17 3 -23 -6 -20 -16 6 -56
-51 -69 -99 -5 -19 -21 -49 -34 -65 -14 -16 -25 -34 -25 -40 0 -14 -33 -84
-43 -92 -5 -3 -12 -21 -17 -40 -5 -19 -12 -45 -15 -59 -5 -20 -4 -22 4 -10 9
12 10 8 5 -15 -9 -42 -26 -68 -19 -30 5 27 5 28 -5 7 -5 -13 -7 -28 -4 -33 3
-6 3 -22 -1 -37 -5 -21 -8 -23 -17 -11 -8 11 -9 10 -4 -4 3 -10 0 -30 -8 -45
-12 -24 -21 -56 -57 -209 -11 -45 -24 -55 -33 -25 -4 14 -5 14 -4 -3 1 -61 -3
-86 -13 -79 -7 4 -9 0 -5 -14 5 -14 -3 -42 -23 -81 -16 -33 -25 -61 -20 -63 4
-2 6 -14 2 -26 -4 -17 -8 -20 -14 -11 -5 8 -10 -6 -15 -38 -4 -31 -14 -59 -25
-69 -11 -9 -19 -21 -19 -26 0 -5 -12 -25 -26 -44 -21 -27 -23 -34 -10 -34 9 0
16 7 16 15 0 15 42 65 55 65 3 0 -2 -12 -11 -26 -14 -21 -15 -27 -4 -34 10 -6
11 -12 3 -22 -28 -35 -30 -148 -4 -258 18 -75 18 -75 -3 -94 -15 -14 -16 -17
-5 -13 23 8 31 -37 11 -57 -19 -18 -23 -56 -9 -74 17 -21 -1 -26 -29 -8 -28
19 -43 16 -20 -3 8 -7 12 -19 9 -28 -5 -12 -1 -14 18 -9 l24 7 -25 -22 c-15
-13 -20 -24 -13 -26 8 -3 9 -13 3 -34 -8 -26 -7 -29 5 -19 13 11 15 5 15 -34
0 -26 7 -81 16 -122 8 -42 13 -79 10 -82 -3 -3 -6 4 -6 16 0 12 -4 22 -10 22
-5 0 -10 11 -10 24 0 14 -5 28 -10 31 -6 4 -8 15 -5 25 3 10 1 21 -5 25 -18
11 -11 -43 15 -107 14 -34 25 -68 25 -76 0 -9 3 -12 7 -9 3 4 21 -24 39 -61
l32 -67 -21 -17 -22 -18 29 0 28 0 -23 -19 c-20 -16 -21 -21 -10 -35 7 -9 24
-16 37 -16 13 0 24 -4 24 -10 0 -5 10 -10 23 -10 21 0 62 -19 42 -20 -14 0
-35 -49 -24 -55 5 -3 3 -15 -3 -25 -10 -15 -10 -22 0 -32 16 -16 15 -28 -1
-28 -8 0 -19 -12 -25 -26 -14 -29 -1 -64 23 -64 8 0 15 -9 15 -20 0 -20 1 -20
37 4 20 14 39 24 41 21 2 -2 -2 -18 -9 -35 -12 -26 -19 -31 -41 -27 -34 4 -38
-19 -11 -60 17 -26 17 -27 0 -20 -13 5 -17 1 -17 -19 0 -14 4 -33 9 -43 8 -15
5 -16 -27 -14 -36 3 -36 3 -9 -8 40 -16 34 -31 -10 -23 -60 11 -78 20 -78 40
0 15 -8 19 -40 20 -67 2 -68 3 -62 25 3 12 0 28 -9 36 -12 13 -14 12 -14 -8 0
-43 -11 -11 -12 35 0 38 -4 46 -20 46 -16 0 -17 -3 -8 -21 12 -22 7 -49 -8
-49 -15 0 -20 50 -13 107 5 35 3 59 -6 75 l-12 23 -1 -27 c0 -26 -3 -28 -39
-28 -36 0 -39 2 -44 33 -6 39 2 89 13 82 5 -3 2 8 -6 25 -9 16 -16 30 -17 30
-1 0 -1 -20 1 -44 3 -36 1 -44 -15 -48 -18 -5 -19 -1 -12 49 4 29 3 68 -2 85
-7 25 -5 36 8 50 15 17 15 19 -2 38 -16 17 -16 20 -2 20 8 0 17 -6 20 -12 2
-7 8 -10 12 -5 5 4 3 13 -3 19 -8 8 -12 47 -12 106 l0 94 -28 -6 c-16 -4 -35
-1 -46 7 -18 13 -18 14 8 21 15 4 35 4 44 2 15 -5 17 4 20 67 3 76 -5 147 -17
147 -4 0 -5 -45 -3 -100 4 -85 2 -100 -11 -100 -8 0 -18 6 -20 13 -4 10 -6 10
-6 0 -1 -15 -81 -18 -81 -4 0 5 5 11 12 13 7 3 6 7 -5 11 -12 4 -17 1 -17 -11
-1 -15 -2 -15 -10 -2 -14 25 -13 161 3 220 l15 55 1 -53 c1 -45 4 -53 19 -50
15 3 17 16 14 143 -2 77 -8 142 -13 143 -12 5 -11 82 1 82 14 0 13 142 -2 177
-6 16 -10 70 -9 128 2 55 0 97 -3 94 -3 -3 -7 -38 -8 -77 -1 -55 -5 -72 -16
-72 -10 0 -12 -4 -4 -12 5 -7 9 -40 7 -73 -1 -33 1 -67 6 -77 7 -13 5 -15 -11
-11 -14 4 -20 0 -20 -11 0 -9 -5 -16 -11 -16 -7 0 -9 10 -4 27 5 23 4 25 -9
14 -14 -12 -16 -115 -16 -972 l0 -959 1101 0 c1038 0 1100 1 1095 18 -3 9 -7
35 -11 56 -3 22 -12 70 -20 108 -8 38 -12 75 -8 83 3 8 1 15 -3 15 -5 0 -9 12
-10 28 0 15 -6 85 -12 155 -7 70 -12 153 -12 183 0 58 -22 106 -44 98 -7 -3
-20 3 -28 13 -13 15 -14 21 -4 35 14 19 44 18 57 -3 5 -9 9 -10 9 -2 0 13 -17
26 -40 30 -8 1 -16 7 -18 13 -2 6 -10 17 -19 25 -8 8 -11 15 -7 15 5 0 3 5 -4
12 -9 9 -15 8 -26 -8 -12 -15 -17 -17 -27 -6 -7 6 -36 12 -65 12 -33 0 -54 -5
-57 -12 -7 -19 -22 0 -37 45 -6 20 -15 37 -18 37 -8 0 -29 47 -34 75 -2 15 2
19 16 17 17 -3 17 -2 2 20 -9 12 -16 29 -16 37 0 15 9 6 72 -71 47 -58 79 -87
92 -82 12 5 18 64 6 64 -4 0 -6 22 -6 50 0 33 5 50 13 50 7 0 13 6 13 13 0 18
56 67 77 68 16 0 15 2 -2 9 -16 7 -16 9 -4 9 10 1 26 18 37 39 l19 37 -95 -3
c-75 -3 -104 0 -136 14 -23 10 -43 21 -46 24 -8 8 -43 29 -66 39 -11 5 -33 20
-50 34 -16 13 -45 31 -64 41 -55 25 -192 158 -220 212 -14 27 -29 52 -34 56
-5 3 -10 14 -11 25 -1 10 -7 29 -12 43 -8 19 -7 26 2 28 25 6 25 34 -2 88 -26
54 -38 64 -46 42 -2 -7 -8 -9 -13 -5 -5 4 -2 12 6 17 12 7 13 15 4 38 -17 45
2 62 83 73 37 5 80 13 95 19 23 7 30 5 41 -11 15 -20 29 -16 20 7 -3 8 0 14 6
14 6 0 11 -7 11 -15 0 -21 8 -19 32 8 11 12 16 16 12 8 -5 -9 2 -8 20 5 19 14
25 26 22 43 -6 34 34 108 57 103 15 -3 17 4 16 55 -1 47 -3 53 -9 28 l-8 -30
-1 33 c0 18 -5 31 -10 28 -11 -7 -21 81 -17 156 1 31 -1 55 -6 52 -4 -3 -8
-11 -8 -18 0 -8 -7 -27 -15 -42 -8 -16 -15 -39 -15 -51 0 -12 -4 -25 -10 -28
-5 -3 -11 -18 -12 -33 -1 -15 -4 -2 -8 28 -6 46 -7 49 -8 18 -1 -21 -6 -38
-12 -38 -5 0 -8 12 -5 28 11 71 14 125 8 118 -5 -4 -11 -33 -14 -64 l-6 -57
-3 60 -3 60 -8 -45 c-5 -31 -7 -8 -5 70 2 63 1 103 -1 87 -3 -15 -8 -25 -13
-22 -5 3 -7 11 -5 18 2 7 6 26 10 42 6 29 5 28 -18 -9 -16 -26 -26 -34 -29
-25 -4 9 -8 4 -13 -13 -4 -16 -11 -28 -17 -28 -5 0 -6 -10 -3 -21 5 -14 3 -19
-3 -15 -6 3 -13 -2 -16 -11 -2 -10 -3 9 -1 42 3 42 2 53 -4 35 -8 -21 -9 -22
-11 -5 0 11 -10 -5 -20 -35 l-19 -55 3 45 c1 25 -2 58 -7 75 -10 29 -11 29
-29 -30 -26 -87 -29 -95 -39 -95 -5 0 -9 11 -9 25 0 40 -15 29 -35 -27 -10
-29 -27 -60 -37 -68 -10 -8 -21 -33 -25 -55 -3 -22 -10 -43 -14 -46 -5 -3 -12
-33 -15 -68 -4 -37 -10 -57 -15 -49 -6 9 -11 6 -18 -12 -8 -22 -10 -17 -12 30
-1 30 -2 73 -1 95 1 34 0 36 -8 15 -5 -17 -8 4 -9 70 0 53 3 89 7 82 10 -15
38 119 33 162 -1 15 1 26 6 23 5 -3 10 6 11 21 3 35 22 82 33 82 5 0 9 8 9 17
0 9 8 25 17 35 9 10 17 26 18 36 1 9 9 31 18 47 16 30 16 30 17 5 1 -18 5 -12
14 20 8 30 9 49 2 58 -7 9 -5 12 5 10 10 -2 13 6 12 27 -2 20 0 25 6 16 7 -11
11 -9 21 9 10 18 10 21 -2 15 -10 -6 -11 -5 0 6 6 7 12 17 12 21 0 16 -18 7
-55 -29 -22 -22 -36 -30 -32 -20 4 10 7 23 7 28 0 6 5 7 10 4 6 -3 10 2 10 13
0 10 12 41 26 68 43 79 124 242 124 249 0 3 16 31 36 62 21 34 34 63 31 75 -4
15 -3 17 8 8 10 -9 15 -6 20 10 4 12 34 49 68 82 l61 61 -39 -6 c-21 -3 -42
-12 -47 -19 -4 -7 -8 -9 -8 -4 0 5 -6 4 -12 -1 -7 -6 -23 -12 -34 -15 -17 -4
-20 -2 -17 13 7 27 79 96 120 116 34 16 33 40 -1 27 -14 -5 -15 -9 -4 -16 9
-7 8 -8 -6 -4 -10 4 -25 1 -32 -5 -26 -22 -14 2 14 27 16 14 20 22 10 18 -10
-3 -18 -10 -18 -14 0 -4 -9 -10 -21 -13 -20 -5 -20 -5 -3 20 15 24 15 26 0 20
-9 -4 -14 -3 -11 2 10 17 -10 20 -29 5z m37 -219 c-3 -9 -8 -14 -10 -11 -3 3
-2 9 2 15 9 16 15 13 8 -4z m-33 -5 c-8 -5 -19 -10 -25 -10 -5 0 -3 5 5 10 8
5 20 10 25 10 6 0 3 -5 -5 -10z m-400 -1080 c-16 -60 -23 -43 -8 21 7 30 14
46 16 37 2 -9 -2 -35 -8 -58z m297 -82 c-3 -8 -6 -5 -6 6 -1 11 2 17 5 13 3
-3 4 -12 1 -19z m-871 -201 c-18 -49 -38 -92 -45 -98 -8 -6 -8 -6 -1 3 6 7 10
18 10 26 0 16 61 164 66 160 1 -2 -12 -43 -30 -91z m48 5 c-4 -15 -7 -38 -6
-52 1 -14 -1 -19 -4 -12 -10 22 -23 12 -35 -28 -7 -22 -16 -40 -21 -40 -11 0
-10 17 2 25 6 3 10 15 10 25 0 25 53 135 58 120 2 -6 1 -23 -4 -38z m583 -34
c-3 -7 -5 -2 -5 12 0 14 2 19 5 13 2 -7 2 -19 0 -25z m-634 -130 c-13 -6 -23
-18 -24 -27 0 -13 -2 -13 -6 -2 -6 14 22 42 41 40 6 0 1 -5 -11 -11z m965 -50
c-35 -22 -52 -23 -44 -2 3 9 9 27 12 40 l6 24 27 -23 28 -22 -29 -17z m-986
-95 c5 -6 6 -24 2 -39 -7 -25 -8 -26 -15 -9 -4 11 -7 38 -7 60 0 22 3 31 5 20
3 -11 9 -25 15 -32z m-26 -69 c-3 -8 -1 -14 5 -14 6 0 7 -4 4 -10 -12 -20 -25
-9 -25 21 0 19 4 28 11 24 6 -4 8 -13 5 -21z m-416 -94 c0 -5 -5 -10 -11 -10
-5 0 -7 5 -4 10 3 6 8 10 11 10 2 0 4 -4 4 -10z m434 -6 c3 -8 2 -12 -4 -9 -6
3 -10 10 -10 16 0 14 7 11 14 -7z m-467 -41 c-3 -10 -5 -4 -5 12 0 17 2 24 5
18 2 -7 2 -21 0 -30z m30 -35 c-3 -7 -5 -2 -5 12 0 14 2 19 5 13 2 -7 2 -19 0
-25z m-1 -54 c-8 -21 -11 -17 -20 21 -7 28 -6 29 10 13 10 -10 14 -23 10 -34z
m459 -112 c-3 -3 -5 0 -5 7 0 7 -4 10 -9 7 -5 -4 -7 4 -3 16 l5 22 9 -24 c5
-12 6 -25 3 -28z m-25 -57 c0 -8 -4 -15 -10 -15 -5 0 -7 7 -4 15 4 8 8 15 10
15 2 0 4 -7 4 -15z m37 -237 c-3 -8 -6 -5 -6 6 -1 11 2 17 5 13 3 -3 4 -12 1
-19z m10 -70 c-3 -8 -6 -5 -6 6 -1 11 2 17 5 13 3 -3 4 -12 1 -19z m-403 -35
c-5 -5 -12 -12 -16 -18 -4 -6 -8 -2 -8 8 0 9 7 17 17 17 9 0 12 -3 7 -7z m36
-65 c0 -53 -2 -60 -13 -48 -9 10 -12 31 -9 63 6 68 22 58 22 -15z m-37 -40
c-8 -72 -13 -73 -13 -5 0 32 4 57 10 57 5 0 7 -22 3 -52z m1767 -24 c0 -8 -5
-12 -10 -9 -6 4 -8 11 -5 16 9 14 15 11 15 -7z m-692 -199 c0 -16 -2 -15 -8 5
-4 14 -8 34 -8 45 0 16 2 15 8 -5 4 -14 8 -34 8 -45z m-577 -52 c-12 -20 -14
-14 -5 12 4 9 9 14 11 11 3 -2 0 -13 -6 -23z m1203 -114 c6 -67 4 -98 -9 -143
-9 -32 -18 -56 -20 -54 -2 2 0 29 4 59 4 31 3 95 -2 143 -9 90 -3 141 13 101
4 -11 11 -59 14 -106z m196 107 c0 -3 -4 -8 -10 -11 -5 -3 -10 -1 -10 4 0 6 5
11 10 11 6 0 10 -2 10 -4z m-145 -33 c18 -14 18 -15 2 -9 -10 3 -23 6 -28 6
-5 0 -9 5 -9 10 0 14 12 12 35 -7z m-1250 -62 c3 -5 1 -12 -5 -16 -5 -3 -10 1
-10 9 0 18 6 21 15 7z m-418 -63 c-3 -7 -5 -2 -5 12 0 14 2 19 5 13 2 -7 2
-19 0 -25z m498 -18 c-9 -41 -17 -33 -9 9 4 17 9 30 11 27 3 -2 2 -19 -2 -36z
m-465 -10 c-19 -13 -30 -13 -30 0 0 6 10 10 23 10 18 0 19 -2 7 -10z m670 -90
c8 0 25 -40 34 -82 9 -39 -22 -38 -49 1 -10 16 -23 27 -28 24 -5 -3 -6 4 -2
17 5 15 4 20 -4 16 -7 -5 -11 3 -10 21 1 17 3 21 6 11 8 -33 23 -18 24 25 l1
42 10 -37 c6 -21 13 -38 18 -38z m-203 28 c-3 -7 -5 -2 -5 12 0 14 2 19 5 13
2 -7 2 -19 0 -25z m30 10 c-3 -8 -6 -5 -6 6 -1 11 2 17 5 13 3 -3 4 -12 1 -19z
m81 -72 c-2 -37 -7 -61 -12 -56 -8 8 1 120 10 120 3 0 4 -29 2 -64z m782 33
c0 -5 3 -8 8 -5 11 7 36 -16 42 -39 7 -29 3 -305 -4 -312 -12 -12 -18 5 -28
79 -5 40 -16 101 -24 135 -16 72 -18 153 -4 153 6 0 10 -5 10 -11z m171 -142
c-12 -39 -28 -95 -36 -122 -9 -28 -25 -66 -37 -85 -12 -19 -22 -38 -23 -42 0
-10 -15 -22 -15 -12 0 24 22 84 30 84 6 0 10 11 10 25 0 13 11 58 25 99 14 41
25 82 25 90 0 9 4 16 9 16 5 0 13 10 17 23 4 13 9 17 11 9 3 -7 -5 -45 -16
-85z m-1221 -7 c0 -5 -4 -10 -10 -10 -5 0 -10 5 -10 10 0 6 5 10 10 10 6 0 10
-4 10 -10z m189 -81 c18 -19 18 -23 4 -59 -15 -38 -33 -45 -33 -14 0 8 -4 14
-9 14 -5 0 -8 -8 -6 -17 1 -10 0 -12 -2 -5 -3 6 -8 12 -11 12 -4 0 -8 20 -9
45 -2 41 0 45 22 45 13 0 33 -9 44 -21z m1221 -154 c0 -25 -4 -35 -16 -35 -11
0 -14 5 -9 18 4 9 10 25 12 35 8 27 13 20 13 -18z m-278 -77 c-10 -10 -42 15
-42 33 0 18 18 9 25 -13 7 -22 8 -21 13 7 5 27 6 28 10 6 2 -13 -1 -28 -6 -33z
m239 -1 c-10 -9 -11 -8 -5 6 3 10 9 15 12 12 3 -3 0 -11 -7 -18z m-266 -17 c3
-5 1 -10 -4 -10 -6 0 -11 5 -11 10 0 6 2 10 4 10 3 0 8 -4 11 -10z m293 -28
c2 -7 -6 -12 -17 -12 -21 0 -27 11 -14 24 9 9 26 2 31 -12z"/>
<path d="M1651 494 c0 -11 3 -14 6 -6 3 7 2 16 -1 19 -3 4 -6 -2 -5 -13z"/>
<path d="M1360 3890 c0 -5 5 -10 10 -10 6 0 10 5 10 10 0 6 -4 10 -10 10 -5 0
-10 -4 -10 -10z"/>
<path d="M1744 3728 c-3 -4 -14 -8 -25 -8 -27 0 -83 -61 -109 -118 -12 -26
-26 -55 -31 -64 -10 -19 -2 -22 25 -12 9 3 16 11 16 18 0 6 14 19 31 28 17 10
28 22 24 27 -3 6 3 15 14 20 10 6 21 21 25 34 3 13 17 29 31 35 14 6 25 16 25
22 0 5 16 10 36 10 22 0 33 4 29 10 -8 12 -84 10 -91 -2z"/>
<path d="M2242 3560 c0 -14 2 -19 5 -12 2 6 2 18 0 25 -3 6 -5 1 -5 -13z"/>
<path d="M957 3493 c-4 -3 -7 -11 -7 -17 0 -6 5 -5 12 2 6 6 9 14 7 17 -3 3
-9 2 -12 -2z"/>
<path d="M2807 3349 c4 -13 8 -18 11 -10 2 7 -1 18 -6 23 -8 8 -9 4 -5 -13z"/>
<path d="M2831 3310 c0 -8 4 -31 10 -50 5 -19 12 -43 14 -53 8 -38 17 -57 25
-57 14 0 -2 83 -20 110 -10 14 -20 34 -23 45 -3 12 -5 14 -6 5z"/>
<path d="M1360 3224 c0 -8 5 -12 10 -9 6 3 10 10 10 16 0 5 -4 9 -10 9 -5 0
-10 -7 -10 -16z"/>
<path d="M1341 3186 c-9 -10 -8 -15 3 -19 8 -3 16 2 19 14 6 22 -6 25 -22 5z"/>
<path d="M2286 2715 c4 -16 18 -61 31 -100 28 -79 37 -150 28 -213 l-6 -44
-40 6 c-22 3 -39 1 -39 -4 0 -6 3 -9 8 -9 18 3 33 -2 28 -10 -3 -4 -24 -8 -46
-8 l-40 0 0 44 c0 37 -2 42 -14 31 -10 -9 -11 -15 -3 -20 11 -6 4 -10 -40 -24
-7 -2 -13 2 -13 9 0 7 -5 5 -10 -5 -8 -13 -14 -14 -34 -5 -13 7 -22 15 -20 19
3 5 0 8 -7 8 -8 0 -8 4 -2 13 11 13 24 57 17 57 -4 0 -35 -70 -38 -87 -5 -29
-16 -24 -17 8 -1 21 -3 26 -6 14 -7 -30 -23 -42 -24 -19 -1 10 -1 23 0 27 1 5
-3 6 -9 2 -5 -3 -10 -13 -10 -21 0 -8 -4 -14 -8 -14 -5 0 -14 -10 -20 -22 -10
-20 -11 -17 -7 22 4 32 2 39 -4 25 -5 -11 -10 -42 -10 -69 -1 -46 0 -48 23
-44 14 3 31 1 38 -3 7 -5 16 -3 20 4 4 6 10 8 15 3 4 -4 0 -12 -10 -17 -22
-13 -23 -33 -1 -25 15 6 15 4 1 -18 -15 -22 -15 -25 -1 -30 9 -3 14 -12 11
-20 -6 -15 36 -31 53 -21 4 3 19 1 33 -4 27 -11 70 -4 62 10 -3 4 -15 6 -26 4
-12 -2 -32 3 -46 12 -23 16 -24 17 -7 24 11 3 24 2 31 -3 17 -14 47 -2 58 24
6 12 17 24 25 26 11 4 10 -1 -4 -17 -17 -18 -17 -21 -3 -15 17 6 21 17 17 43
-1 13 1 13 15 1 15 -12 16 -12 13 6 -2 14 2 18 16 16 18 -3 18 -2 5 14 -13 16
-12 17 6 10 11 -5 30 -11 42 -13 26 -6 40 -40 24 -56 -19 -19 -12 -27 19 -20
21 4 30 2 31 -8 0 -8 6 9 13 36 l13 50 8 -80 c6 -59 10 -73 16 -55 18 63 9
125 -42 270 -27 80 -52 157 -55 171 -3 15 -19 53 -35 85 -19 39 -27 49 -23 29z
m-196 -365 c0 -5 -4 -10 -10 -10 -5 0 -10 5 -10 10 0 6 5 10 10 10 6 0 10 -4
10 -10z m80 -9 c0 -6 -4 -12 -8 -15 -5 -3 -9 1 -9 9 0 8 4 15 9 15 4 0 8 -4 8
-9z"/>
<path d="M1292 2700 c0 -14 2 -19 5 -12 2 6 2 18 0 25 -3 6 -5 1 -5 -13z"/>
<path d="M1431 2704 c0 -11 3 -14 6 -6 3 7 2 16 -1 19 -3 4 -6 -2 -5 -13z"/>
<path d="M590 2650 c0 -5 5 -10 10 -10 6 0 10 5 10 10 0 6 -4 10 -10 10 -5 0
-10 -4 -10 -10z"/>
<path d="M1222 2531 c-14 -46 -15 -58 -3 -45 10 10 26 84 19 84 -3 0 -10 -17
-16 -39z"/>
<path d="M1773 2490 c0 -25 2 -35 4 -22 2 12 2 32 0 45 -2 12 -4 2 -4 -23z"/>
<path d="M100 2481 c0 -11 5 -23 10 -26 6 -4 10 5 10 19 0 14 -4 26 -10 26 -5
0 -10 -9 -10 -19z"/>
<path d="M1814 2438 c2 -21 1 -38 -3 -38 -5 0 -6 -12 -3 -27 5 -25 6 -25 13
-8 11 29 10 78 -2 95 -8 11 -9 6 -5 -22z"/>
<path d="M1952 2440 c0 -14 2 -19 5 -12 2 6 2 18 0 25 -3 6 -5 1 -5 -13z"/>
<path d="M1760 2414 c0 -14 -5 -57 -12 -96 -8 -51 -14 -66 -19 -52 -7 18 -8
17 -8 -3 -1 -31 16 -38 44 -19 16 11 25 26 25 43 0 26 -1 26 -14 7 -13 -17
-14 -9 -9 64 3 45 3 82 -1 82 -3 0 -6 -12 -6 -26z"/>
<path d="M97 2353 c-3 -16 -3 -30 -1 -33 7 -7 24 23 24 43 0 27 -17 20 -23
-10z"/>
<path d="M1890 2341 c0 -11 -4 -23 -10 -26 -5 -3 -10 -15 -10 -26 0 -10 5 -19
10 -19 6 0 10 6 10 14 0 8 7 22 16 30 14 15 14 17 0 32 -15 14 -16 14 -16 -5z"/>
<path d="M1850 2339 c0 -6 -7 -9 -15 -5 -12 4 -15 -2 -14 -27 1 -30 1 -31 9
-7 6 19 8 21 9 6 1 -11 4 -16 8 -12 9 8 16 56 8 56 -3 0 -5 -5 -5 -11z"/>
<path d="M1871 2334 c0 -11 3 -14 6 -6 3 7 2 16 -1 19 -3 4 -6 -2 -5 -13z"/>
<path d="M1802 2310 c0 -19 2 -27 5 -17 2 9 2 25 0 35 -3 9 -5 1 -5 -18z"/>
<path d="M84 2299 c-7 -12 15 -59 28 -59 9 0 10 16 2 48 -7 24 -19 29 -30 11z"/>
<path d="M146 2251 c-3 -5 1 -12 10 -15 22 -8 25 -4 9 11 -8 7 -16 9 -19 4z"/>
<path d="M224 2129 c-3 -6 -1 -16 5 -22 8 -8 11 -5 11 11 0 24 -5 28 -16 11z"/>
<path d="M233 2040 c0 -25 2 -35 4 -22 2 12 2 32 0 45 -2 12 -4 2 -4 -23z"/>
<path d="M371 2044 c0 -11 3 -14 6 -6 3 7 2 16 -1 19 -3 4 -6 -2 -5 -13z"/>
<path d="M1378 2023 c7 -3 16 -2 19 1 4 3 -2 6 -13 5 -11 0 -14 -3 -6 -6z"/>
<path d="M0 2006 c0 -2 7 -9 15 -16 12 -10 15 -10 15 4 0 9 -7 16 -15 16 -8 0
-15 -2 -15 -4z"/>
<path d="M420 1994 c0 -8 5 -12 10 -9 6 3 10 10 10 16 0 5 -4 9 -10 9 -5 0
-10 -7 -10 -16z"/>
<path d="M2741 1984 c0 -11 3 -14 6 -6 3 7 2 16 -1 19 -3 4 -6 -2 -5 -13z"/>
<path d="M226 1955 c-9 -24 -6 -116 4 -140 6 -14 9 -2 9 42 1 34 5 63 9 65 4
2 3 13 -4 26 -10 20 -12 21 -18 7z"/>
<path d="M401 1954 c0 -11 3 -14 6 -6 3 7 2 16 -1 19 -3 4 -6 -2 -5 -13z"/>
<path d="M2506 1900 c-6 -55 -22 -117 -41 -164 -6 -14 -5 -17 3 -12 8 5 12 -2
13 -21 1 -40 25 87 34 180 8 90 1 105 -9 17z"/>
<path d="M2742 1865 c0 -16 2 -22 5 -12 2 9 2 23 0 30 -3 6 -5 -1 -5 -18z"/>
<path d="M451 1854 c0 -11 3 -14 6 -6 3 7 2 16 -1 19 -3 4 -6 -2 -5 -13z"/>
<path d="M153 1800 c0 -25 2 -35 4 -22 2 12 2 32 0 45 -2 12 -4 2 -4 -23z"/>
<path d="M461 1804 c0 -11 3 -14 6 -6 3 7 2 16 -1 19 -3 4 -6 -2 -5 -13z"/>
<path d="M2762 1750 c0 -14 2 -19 5 -12 2 6 2 18 0 25 -3 6 -5 1 -5 -13z"/>
<path d="M460 1720 c0 -5 5 -10 11 -10 5 0 7 5 4 10 -3 6 -8 10 -11 10 -2 0
-4 -4 -4 -10z"/>
<path d="M2472 1615 c0 -16 2 -22 5 -12 2 9 2 23 0 30 -3 6 -5 -1 -5 -18z"/>
<path d="M1738 1588 c-16 -5 -28 -13 -28 -17 0 -8 9 -10 60 -13 17 -1 30 -6
30 -11 0 -5 9 -7 20 -4 11 3 20 1 20 -4 0 -5 5 -9 11 -9 5 0 7 5 4 10 -3 6 1
10 10 10 9 0 13 -4 10 -10 -3 -5 1 -10 9 -10 8 0 17 4 20 8 3 5 23 8 45 8 21
-1 37 2 35 6 -3 4 6 13 18 19 23 13 23 13 -9 20 -18 3 -55 2 -83 -4 -36 -7
-58 -7 -76 2 -30 13 -59 13 -96 -1z"/>
<path d="M232 1465 c0 -16 2 -22 5 -12 2 9 2 23 0 30 -3 6 -5 -1 -5 -18z"/>
<path d="M1896 1465 c4 -8 12 -15 20 -15 20 0 17 7 -6 20 -16 9 -18 8 -14 -5z"/>
<path d="M156 1453 c-6 -14 -5 -15 5 -6 7 7 10 15 7 18 -3 3 -9 -2 -12 -12z"/>
<path d="M73 1400 c0 -25 2 -35 4 -22 2 12 2 32 0 45 -2 12 -4 2 -4 -23z"/>
<path d="M480 980 c0 -5 5 -10 10 -10 6 0 10 5 10 10 0 6 -4 10 -10 10 -5 0
-10 -4 -10 -10z"/>
<path d="M215 960 c-8 -24 13 -66 26 -53 11 11 1 73 -12 73 -4 0 -10 -9 -14
-20z"/>
<path d="M1935 930 c3 -5 8 -10 11 -10 2 0 4 5 4 10 0 6 -5 10 -11 10 -5 0 -7
-4 -4 -10z"/>
<path d="M561 574 c0 -11 3 -14 6 -6 3 7 2 16 -1 19 -3 4 -6 -2 -5 -13z"/>
<path d="M560 500 c0 -5 16 -10 35 -10 19 0 35 5 35 10 0 6 -16 10 -35 10 -19
0 -35 -4 -35 -10z"/>
</g>
</svg>
